Simulation
nRows=31
nColumns=15
endheader
time  TH_x TH_y TH_z SC_y  SC_z  SC_x  AC_y  AC_z  AC_x  GH_y  GH_z  GH_yy  EL_x  PS_y
0.0  0.000000  0.000000  0.000000  -19.21729539045583  4.0247466988830976  -9.60427344049401  59.37805658417693  10.606227540766053  11.046329215745997  -119.57494772916823  5.024826712279291  150.95097454712163  20.1974384025248  120.000000
0.04016479400749064  0.000000  0.000000  0.000000  -19.236208487968113  4.056836704305669  -9.56993143020437  59.336377567979085  10.658124130681708  11.028427322271558  -118.09405637678529  4.964463416209068  149.3816224366516  20.110565058896842  120.000000
0.08032958801498127  0.000000  0.000000  0.000000  -19.294538506363274  4.152796358122445  -9.47753045668312  59.207057336551586  10.805015162477455  10.968969020463927  -113.47957803131317  4.818095529099648  144.50074795267398  19.85944985153555  120.000000
0.12049438202247191  0.000000  0.000000  0.000000  -19.404146177134397  4.309318978147141  -9.346765590816474  58.97602792027805  11.02429543969048  10.867388024309017  -105.48604553418149  4.678497792499536  136.0595003553273  19.4697183706138  120.000000
0.16065917602996255  0.000000  0.000000  0.000000  -19.578397923579907  4.518420025958776  -9.196863547175365  58.636430366130476  11.291916519816644  10.730635139832799  -94.36033671672719  4.669566242706778  124.30353256865277  18.972594314975552  120.000000
0.20082397003745317  0.000000  0.000000  0.000000  -19.828886817715244  4.772595158080874  -9.04367353209853  58.19249159863907  11.588348490458044  10.566377274996283  -81.37251001052321  4.917199435733302  110.50708565160109  18.39903662932458  120.000000
0.24098876404494382  0.000000  0.000000  0.000000  -20.169476535443767  5.065202635817385  -8.896257982964698  57.64996421946112  11.899491044017333  10.385873387639279  -68.60629062978104  5.504368704892051  96.76274638183523  17.775090881171884  120.000000
0.28115355805243447  0.000000  0.000000  0.000000  -20.61129961743793  5.391322276822779  -8.75847612417559  57.02234925229162  12.219210027388867  10.199029893457755  -57.698048506151736  6.439374906336532  84.72064498290345  17.121617141661346  120.000000
0.3213183520599251  0.000000  0.000000  0.000000  -21.16143278749267  5.749443552859103  -8.62339075863039  56.328379211112406  12.54296983391688  10.01422903816982  -49.12404221724396  7.681848301987736  74.8745190397269  16.456775925338665  120.000000
0.3614831460674157  0.000000  0.000000  0.000000  -21.819147255393947  6.138486067625681  -8.47567931217192  55.59051895737323  12.867229977650469  9.83586198162895  -42.602706923729365  9.182325465498636  66.96341535450277  15.794789864739895  120.000000
0.40164794007490634  0.000000  0.000000  0.000000  -22.578688133730033  6.55809385090729  -8.298728857000429  54.8317709595349  13.190461800086675  9.666396184299442  -37.66449427231103  10.900692137544926  60.5407279386048  15.147494270600216  120.000000
0.441812734082397  0.000000  0.000000  0.000000  -23.43080687970795  7.006152800954679  -8.076509714558094  54.07226748843496  13.509929859945995  9.507658844894287  -33.909652039141854  12.806974383677888  55.23091170280473  14.523175495473286  120.000000
0.48197752808988764  0.000000  0.000000  0.000000  -24.363171325831324  7.478687405154496  -7.794009460456352  53.33104282094459  13.820390079872613  9.359457171406028  -31.041058206609936  14.875838324491262  50.76168564667857  13.92797438610624  120.000000
0.5221423220973783  0.000000  0.000000  0.000000  -25.360801769064448  7.970917557579653  -7.435322051138604  52.625862319224275  14.112920608448555  9.220173658455089  -28.843506251221335  17.0830401620734  46.94239964831283  13.366194760015109  120.000000
0.5623071161048689  0.000000  0.000000  0.000000  -26.406698691886742  8.47659699042759  -6.985275025336602  51.97396745625215  14.377280322535121  9.08658554521858  -27.15807421106551  19.40326598745099  43.63757429920194  12.8401912903726  120.000000
0.6024719101123596  0.000000  0.000000  0.000000  -27.482903627253  8.989104981429666  -6.43176620601966  51.39112069693987  14.603931883417001  8.955878862043825  -25.865074129444046  21.80924451245797  40.74877428137329  12.350732699486796  120.000000
0.6426367041198502  0.000000  0.000000  0.000000  -28.57176591767257  9.501910101239954  -5.768095040747841  50.89009048257946  14.787593749150496  8.827775979992534  -24.87160606664843  24.272501203703865  38.20125757488949  11.8964292556336  120.000000
0.6828014981273408  0.000000  0.000000  0.000000  -29.65652545986883  10.009700605799448  -4.995485533776648  50.47963080299079  14.93049827499088  8.706449534725342  -24.103630696924654  26.76508406161929  35.935182371824716  11.47382971092804  120.000000
0.7229662921348314  0.000000  0.000000  0.000000  -30.72179470108134  10.508590305479533  -4.118762162798473  50.16421541459579  15.039693616877205  8.598525378025252  -23.501938482809603  29.261036618742864  33.90132063312368  11.077181710520222  120.000000
0.7631310861423221  0.000000  0.000000  0.000000  -31.753800771796147  10.995317046720604  -3.1426471227973063  49.94412608205518  15.123956476967058  8.510668186586846  -23.020498849473565  31.736898193090187  32.05930513742339  10.698908568834687  120.000000
0.8032958801498127  0.000000  0.000000  0.000000  -32.740233043534246  11.466718503725893  -2.0730668147351046  49.815076644296944  15.193488101848827  8.4501972631491  -22.625306811077596  34.17166586723631  30.37731920343449  10.330472222382435  120.000000
0.8434606741573034  0.000000  0.000000  0.000000  -33.67011770486427  11.919085417754017  -0.9172781462763558  49.76890901230408  15.258334925470598  8.423906565502868  -22.292811991566698  36.54651667228751  28.831357853352632  9.963737446548981  120.000000
0.883625468164794  0.000000  0.000000  0.000000  -34.53390180831974  12.34824181665739  0.31546324643206075  49.79438041409508  15.326399342692724  8.436996943839267  -22.008213969920384  38.84476859658432  27.40504059232627  9.592650792398432  120.000000
0.9237902621722847  0.000000  0.000000  0.000000  -35.32424512025391  12.749894963598443  1.612869577436061  49.87821616691316  15.402850079125685  8.492046722251617  -21.763804817784806  41.051981940150675  26.088911308223263  9.21462342722893  120.000000
0.9639550561797753  0.000000  0.000000  0.000000  -36.03693535373788  13.120087158013908  2.9593939299850938  50.005615306075384  15.48909008289152  8.588789667393588  -21.55675878713325  43.1567625039263  24.87944778926469  8.83152668904841  120.000000
1.004119850187266  0.000000  0.000000  0.000000  -36.671238250008294  13.455541447619712  4.336109772948683  50.161411524890674  15.582528003703677  8.72426373358218  -21.387063962935507  45.15061885606492  23.77751021820991  8.44975644163281  120.000000
1.0442846441947566  0.000000  0.000000  0.000000  -37.22927518565187  13.753991004241943  5.721199969771248  50.33127689132774  15.677190291303168  8.892915032488508  -21.255635993608323  47.02745435974102  22.786657070462823  8.079485193148622  120.000000
1.0844494382022472  0.000000  0.000000  0.000000  -37.71532622672854  14.014801518807031  7.090628928072842  50.50302343653992  15.764824842557115  9.086642376476526  -21.162953323256772  48.78304950605925  21.911329984120606  7.733143312742644  120.000000
1.1246142322097379  0.000000  0.000000  0.000000  -38.13522867632634  14.239001181878912  8.419450536622946  50.66732799367255  15.836227376184958  9.295158461917007  -21.10844441849013  50.414220155249815  21.15547332642567  7.4237128090064735  120.000000
1.1647790262172284  0.000000  0.000000  0.000000  -38.495703233332634  14.42924075695122  9.682866641681162  50.81820110123319  15.882321783374113  9.506323842312455  -21.09021036793378  51.918148972652396  20.52126716818032  7.162964109471952  120.000000
1.2049438202247191  0.000000  0.000000  0.000000  -38.80379970362699  14.589467691661955  10.857768578937158  50.952868432026925  15.895360602185033  9.70682525925642  -21.104825014041186  53.29203200819952  20.008093129447115  6.960069233468753  120.000000
